<?xml version="1.0" encoding="utf-8"?>
<!-- Generator: Adobe Illustrator 19.0.0, SVG Export Plug-In . SVG Version: 6.00 Build 0)  -->
<svg version="1.1" id="Capa_1" xmlns="http://www.w3.org/2000/svg" xmlns:xlink="http://www.w3.org/1999/xlink" x="0px" y="0px"
	 viewBox="-67 190.9 460 460" style="enable-background:new -67 190.9 460 460;" xml:space="preserve">
<style type="text/css">
	.st0{fill:#FFFFFF;}
	.st1{fill:#00338E;}
</style>
<g>
	<path class="st0" d="M-50.5,492.3l24,22.4l35.7,20.2l30.9,19.6v58.1l32.5,3.2l22.7-34.1c0,0,46.9-5,52-4.7
		c5.1,0.3,69.2,0.9,69.2,0.9l16.1,33.5l34.7,4.4l14.2-6.6l7.3-56.5l40.7-44.2l8.5-48l-10.1-66.3l-92.5-63.4l-23-6.9l9.8-40.1
		l-7.4-29.3l-19.1-16.8l-63.7-7.5l-30.6,18.3l-0.6,37.9l7.6,33.8l-19.9,21.8l-31.2,3.5l-42.6-6.9l-7.9,14.8l4.1,31.6l-13.3,25.8
		l-8.8,17.5l-30.6,7.8l-5.4,13.9L-50.5,492.3z"/>
	<path class="st1" d="M32,410.5c-5.5,0-10,4.5-10,10v15c0,5.5,4.5,10,10,10s10-4.5,10-10v-15C42,415,37.5,410.5,32,410.5z"/>
	<path class="st1" d="M385.7,413.9c-5.3-1.5-10.8,1.6-12.3,6.9c-1.9,6.9-6.6,12.4-12.5,15.8c-4.1-34.6-24.3-66.4-57.9-90.8
		c-18.5-13.4-39.9-23.8-63.3-30.7c3.4-8.9,5.1-18.3,5.1-28c0-43.8-35.7-79.5-79.5-79.5S85.8,243.2,85.8,287c0,10.1,1.9,20,5.5,29.2
		c-11.1,3.5-21.7,7.8-31.9,12.9c-9.8-6.3-21.4-9.8-33.6-9.8h-41.1c-6.1,0-11.5,3.7-13.9,9.3c-2.3,5.6-1,12.1,3.3,16.3l28.3,28.3
		c-11.9,14.3-20.4,30.1-25,46.6H-52c-8.3,0-15,6.7-15,15V482c0,17.4,8.8,33.3,23.5,42.5c15,9.4,38.1,22.7,66.1,35.3v59.4
		c0,8.3,6.7,15,15,15h52.9c7.1,0,13.3-5,14.7-12l6.6-32.9c19.3,3.9,37.9,5.8,55.6,5.8c15.8,0,31.4-1.4,46.6-4.2l7.4,31.7
		c1.6,6.8,7.6,11.6,14.6,11.6h51.9c8.3,0,15-6.7,15-15v-65c34.9-25.4,55.8-59.8,58.5-96.3c14.8-4.5,26.9-16.3,31.2-31.7
		C394.1,420.9,391,415.4,385.7,413.9z M115.8,287c0-27.3,22.2-49.5,49.5-49.5s49.5,22.2,49.5,49.5c0,7.4-1.6,14.6-4.8,21.2
		c-13.8-2.3-28.1-3.5-42.6-3.5c-15.9,0-31.5,1.4-46.5,4.1C117.5,302.1,115.8,294.7,115.8,287z M279.6,533.9
		c-4.2,2.8-6.7,7.5-6.7,12.5v57.9h-24.9l-8-34.5c-0.9-3.9-3.3-7.3-6.8-9.4c-3.4-2.1-7.5-2.7-11.4-1.8c-17.4,4.3-35.7,6.5-54.3,6.5
		c-19.8,0-41.2-2.8-63.6-8.4c-4-1-8.2-0.3-11.6,1.9c-3.5,2.2-5.9,5.7-6.7,9.7l-7.3,35.9H52.6v-54.2c0-6-3.6-11.4-9.1-13.8
		c-30.3-12.9-55.3-27.3-71-37.1C-33.5,495.4-37,489-37,482v-32.3h26.4c7.4,0,13.6-5.4,14.8-12.6c2.4-14.9,9.1-29.5,19.5-42.7
		l0.7,0.7c2.9,2.9,6.8,4.4,10.6,4.4s7.7-1.5,10.6-4.4c5.9-5.9,5.9-15.4,0-21.2L21,349.2h4.8c12.1,0,23.1,6.7,28.7,17.5
		c3.8,7.4,12.8,10.3,20.2,6.5c7.4-3.8,10.3-12.8,6.5-20.2c-0.1-0.3-0.3-0.5-0.4-0.8c26-11.5,55.6-17.5,86.7-17.5
		c44.7,0,86.6,12.5,117.9,35.3c29.9,21.7,46.3,50.1,46.3,79.9C331.6,481.5,312.7,512.1,279.6,533.9z"/>
</g>
</svg>
