<?xml version="1.0" encoding="utf-8"?>
<!-- Generator: Adobe Illustrator 19.0.0, SVG Export Plug-In . SVG Version: 6.00 Build 0)  -->
<svg version="1.1" id="Calque_1" xmlns="http://www.w3.org/2000/svg" xmlns:xlink="http://www.w3.org/1999/xlink" x="0px" y="0px"
	 viewBox="-277 400.9 40 40" style="enable-background:new -277 400.9 40 40;" xml:space="preserve">
<style type="text/css">
	.st0{fill:#FFFFFF;}
</style>
<g>
	<g>
		<path class="st0" d="M-254.8,428.1v-7.2h2c1.5,0,2,0,2-0.1s0.1-1,0.2-2.1c0.1-1.1,0.2-2.2,0.2-2.4v-0.4h-2.2h-2.2v-1.6
			c0-0.9,0.1-1.8,0.2-1.9c0.2-0.5,0.7-0.7,2.6-0.7h1.7v-2.5v-2.5h-2.7c-3,0-3.8,0.1-5,0.7c-0.8,0.4-1.6,1.2-2,1.9
			c-0.5,1.1-0.7,1.8-0.7,4.3l-0.1,2.3h-1.5h-1.5v2.5v2.5h1.5h1.5v7.2v7.2h3h3V428.1z"/>
	</g>
</g>
</svg>
