<?xml version="1.0" encoding="utf-8"?>
<!-- Generator: Adobe Illustrator 19.0.0, SVG Export Plug-In . SVG Version: 6.00 Build 0)  -->
<svg version="1.1" id="Calque_1" xmlns="http://www.w3.org/2000/svg" xmlns:xlink="http://www.w3.org/1999/xlink" x="0px" y="0px"
	 viewBox="-277 400.9 40 40" style="enable-background:new -277 400.9 40 40;" xml:space="preserve">
<style type="text/css">
	.st0{fill:#FFFFFF;}
</style>
<g>
	<g>
		<g>
			<path class="st0" d="M-258.3,406c-5.3,0.5-10.6,4.9-10.9,11c-0.1,3.8,0.9,6.6,4.5,7.4c1.6-2.7-0.5-3.3-0.8-5.3
				c-1.3-8.1,9.4-13.7,15-8c3.9,3.9,1.3,16-4.9,14.8c-6-1.2,2.9-10.8-1.8-12.7c-3.9-1.5-5.9,4.7-4.1,7.8c-1.1,5.3-3.4,10.3-2.5,17
				c3.1-2.2,4.1-6.5,4.9-10.9c1.5,0.9,2.4,1.9,4.3,2.1c7.2,0.6,11.2-7.2,10.3-14.4C-245.2,408.4-251.5,405.2-258.3,406z"/>
		</g>
	</g>
</g>
</svg>
